<svg width="381" height="177" viewBox="0 0 381 177" fill="none" xmlns="http://www.w3.org/2000/svg">
<path d="M77.087 143.984C24.913 147.221 11.5797 114.332 1 98.1295V177H381V0C371.87 52.2746 355.783 118.306 303.609 132.062C260.13 143.526 237.957 108.218 191 108.218C138.826 108.218 121.435 141.233 77.087 143.984Z" fill="url(#paint0_linear_18_491)"/>
<path d="M76.087 135.031C12 140.085 0 78.5 0 50.5V177H380V2C370.87 68.4508 354.783 102.389 302.609 119.876C259.13 134.448 236.957 89.5648 190 89.5648C137.826 89.5648 120.435 131.534 76.087 135.031Z" fill="url(#paint1_linear_18_491)"/>
<defs>
<linearGradient id="paint0_linear_18_491" x1="191" y1="88.0415" x2="191" y2="189.839" gradientUnits="userSpaceOnUse">
<stop stop-color="#E38F8F"/>
<stop offset="1" stop-color="#FA0B0B" stop-opacity="0.54"/>
</linearGradient>
<linearGradient id="paint1_linear_18_491" x1="190" y1="63.9171" x2="190" y2="193.321" gradientUnits="userSpaceOnUse">
<stop stop-color="#E38F8F"/>
<stop offset="1" stop-color="#FA0B0B" stop-opacity="0.54"/>
</linearGradient>
</defs>
</svg>
